<?xml version="1.0" standalone="no"?>
<!DOCTYPE svg PUBLIC "-//W3C//DTD SVG 20010904//EN"
 "http://www.w3.org/TR/2001/REC-SVG-20010904/DTD/svg10.dtd">
<svg version="1.0" xmlns="http://www.w3.org/2000/svg"
 width="2939.000000pt" height="3071.000000pt" viewBox="0 0 2939.000000 3071.000000"
 preserveAspectRatio="xMidYMid meet">

<g transform="translate(0.000000,3071.000000) scale(0.100000,-0.100000)"
fill="#000000" stroke="none">
<path d="M14583 28817 c-227 -394 -913 -1584 -1773 -3072 -847 -1467 -1297
-2247 -1602 -2774 l-308 -534 0 -733 0 -732 -57 -75 c-32 -41 -106 -135 -164
-209 -296 -373 -845 -1069 -1473 -1863 -186 -236 -379 -479 -426 -540 -48 -60
-194 -244 -324 -409 l-236 -298 0 -2579 c0 -1418 2 -2579 4 -2579 2 0 174 76
382 169 631 281 1938 864 2116 944 92 41 169 72 172 69 3 -3 6 -108 6 -234 l0
-228 3920 0 3920 0 0 230 c0 148 4 230 10 230 6 0 425 -185 933 -411 1548
-691 1701 -759 1720 -765 16 -5 17 122 17 2571 l0 2576 -243 307 c-134 169
-389 492 -567 717 -720 911 -1311 1659 -1583 2003 l-287 363 0 733 0 733 -181
314 c-172 297 -509 881 -1449 2509 -224 388 -593 1027 -820 1420 -227 393
-479 830 -560 970 -81 140 -265 460 -410 710 -145 250 -315 545 -378 655 -63
110 -117 203 -121 207 -3 4 -110 -174 -238 -395z m1571 -3680 c278 -481 904
-1565 1505 -2605 143 -249 261 -455 261 -457 0 -3 -1395 -5 -3100 -5 -1914 0
-3100 4 -3100 9 0 9 157 282 1060 1846 155 270 375 650 488 845 112 195 229
397 259 448 l54 92 1237 0 1237 0 99 -173z m1696 -7532 l0 -3585 -3035 0
-3035 0 0 3578 c0 1968 3 3582 7 3585 3 4 1369 7 3035 7 l3028 0 0 -3585z
m-6950 -544 c0 -1979 -3 -2491 -12 -2499 -7 -5 -175 -82 -373 -170 -198 -88
-598 -266 -888 -396 -291 -130 -531 -236 -533 -236 -2 0 -4 791 -4 1758 l0
1759 446 564 c245 310 649 822 897 1136 249 315 455 573 460 573 4 0 7 -1120
7 -2489z m8275 1949 c219 -278 616 -780 882 -1117 l483 -611 -2 -1761 -3
-1760 -255 114 c-140 62 -543 242 -895 399 l-640 285 -3 2498 c-2 2435 -2
2497 17 2478 10 -11 197 -247 416 -525z"/>
<path d="M14695 20363 c-161 -15 -356 -72 -503 -148 -598 -311 -882 -970 -697
-1620 34 -120 140 -330 219 -436 215 -286 542 -480 901 -535 198 -31 459 -7
650 59 405 140 724 462 859 867 93 278 95 585 5 862 -197 609 -801 1009 -1434
951z m275 -893 c211 -61 350 -252 350 -479 0 -153 -49 -271 -154 -369 -163
-151 -376 -183 -575 -86 -299 147 -374 543 -148 790 139 153 323 203 527 144z"/>
<path d="M11990 11020 l0 -1490 445 0 445 0 0 1490 0 1490 -445 0 -445 0 0
-1490z"/>
<path d="M14370 10145 l0 -2365 445 0 445 0 0 2365 0 2365 -445 0 -445 0 0
-2365z"/>
<path d="M16760 11020 l0 -1490 445 0 445 0 0 1490 0 1490 -445 0 -445 0 0
-1490z"/>
<path d="M1740 5110 l0 -1120 930 0 930 0 -2 283 -3 282 -560 5 -560 5 0 145
0 145 473 3 472 2 0 265 0 265 -469 0 c-384 0 -470 2 -474 13 -3 8 -4 67 -4
133 l2 119 538 3 537 2 0 285 0 285 -905 0 -905 0 0 -1120z"/>
<path d="M3890 5110 l0 -1120 340 0 340 0 0 491 c0 313 4 489 10 487 8 -2 225
-347 429 -681 l54 -87 169 2 170 3 234 395 c129 217 239 397 244 398 6 2 10
-181 10 -502 l0 -506 347 0 346 0 -6 143 c-4 78 -7 582 -7 1120 l0 977 -307 0
-308 -1 -25 -42 c-14 -23 -173 -291 -354 -594 -181 -304 -332 -553 -335 -553
-3 0 -170 268 -370 595 l-363 595 -309 0 -309 0 0 -1120z"/>
<path d="M6950 5111 l0 -1121 375 0 375 0 0 273 0 274 243 6 c137 4 282 13
334 22 230 38 413 125 546 262 68 70 86 95 132 185 62 121 80 203 79 373 0
200 -27 301 -120 446 -122 193 -332 318 -624 375 -72 14 -182 17 -712 21
l-628 4 0 -1120z m1190 513 c95 -45 143 -125 143 -239 0 -89 -23 -144 -78
-193 -66 -58 -96 -64 -312 -69 l-193 -5 0 267 0 267 198 -4 c175 -3 202 -6
242 -24z"/>
<path d="M9290 5110 l0 -1120 375 0 375 0 2 283 3 282 105 0 104 0 191 -282
190 -283 398 0 c316 0 397 3 391 13 -4 6 -106 156 -225 333 -120 176 -221 327
-223 335 -4 9 18 29 64 58 70 45 173 140 211 196 35 53 86 158 103 215 28 93
39 235 27 345 -47 419 -363 687 -862 734 -65 6 -354 11 -671 11 l-558 0 0
-1120z m1195 512 c106 -49 140 -107 140 -238 0 -83 -2 -94 -30 -140 -37 -58
-99 -100 -174 -114 -29 -5 -127 -10 -217 -10 l-164 0 0 266 0 266 198 -4 c181
-3 201 -5 247 -26z"/>
<path d="M11680 5110 l0 -1120 925 0 925 0 0 285 0 285 -560 0 -561 0 3 148 3
147 473 3 472 2 0 265 0 265 -472 2 -473 3 -3 133 -3 132 541 0 540 0 0 285 0
285 -905 0 -905 0 0 -1120z"/>
<path d="M13830 5110 l0 -1120 365 0 365 0 0 505 c0 278 4 505 8 505 9 0 26
-19 501 -587 l353 -423 304 0 304 0 0 1120 0 1120 -360 0 -360 0 0 -505 c0
-307 -4 -505 -9 -505 -6 0 -200 227 -432 505 l-422 505 -309 0 -308 0 0 -1120z"/>
<path d="M16410 5110 l0 -1120 563 0 c309 0 616 5 682 11 347 30 618 144 812
341 96 96 135 152 194 273 147 306 144 707 -8 1010 -145 290 -435 496 -799
569 -149 30 -300 36 -871 36 l-573 0 0 -1120z m1148 530 c208 -26 361 -139
422 -312 31 -87 39 -286 16 -378 -35 -139 -116 -245 -232 -307 -103 -55 -154
-63 -391 -63 l-213 0 0 535 0 535 158 0 c87 0 195 -5 240 -10z"/>
<path d="M19050 5110 l0 -1120 930 0 930 0 0 285 0 285 -560 0 -560 0 0 150 0
150 470 0 470 0 0 265 0 265 -470 0 -470 0 0 135 0 135 538 2 537 3 3 283 2
282 -910 0 -910 0 0 -1120z"/>
<path d="M10895 3235 l-90 -84 42 -1 c38 0 54 9 148 81 58 44 105 82 105 85 0
2 -26 4 -57 4 l-58 -1 -90 -84z"/>
<path d="M10748 3054 c-132 -31 -261 -128 -320 -240 -105 -196 -65 -452 93
-598 111 -103 225 -142 394 -133 122 6 198 31 288 97 122 91 189 229 189 395
-1 152 -49 265 -158 364 -123 113 -312 158 -486 115z m257 -86 c99 -25 208
-116 254 -212 95 -203 10 -459 -183 -550 -322 -152 -672 109 -602 450 26 131
96 223 210 279 106 52 204 62 321 33z"/>
<path d="M13073 3055 c-260 -70 -413 -298 -374 -556 39 -254 240 -419 511
-419 155 0 262 42 366 145 232 229 174 630 -112 782 -112 60 -274 79 -391 48z
m252 -87 c112 -28 207 -108 258 -216 58 -124 48 -290 -25 -404 -138 -217 -467
-250 -651 -66 -96 96 -139 252 -107 390 53 227 283 357 525 296z"/>
<path d="M20270 3054 c-172 -46 -307 -173 -354 -333 -23 -78 -21 -222 4 -303
65 -211 250 -338 490 -338 129 0 238 36 317 105 l38 33 -24 26 c-30 32 -36 32
-75 2 -125 -94 -291 -110 -446 -40 -79 35 -169 129 -201 211 -18 46 -23 78
-23 159 -1 96 0 103 37 176 82 166 252 254 440 228 77 -11 128 -32 188 -76
l46 -33 29 30 29 31 -35 30 c-110 93 -307 133 -460 92z"/>
<path d="M23363 3056 c-312 -76 -467 -409 -328 -705 60 -126 174 -219 316
-256 71 -19 210 -19 284 0 68 18 164 67 194 99 l21 22 -29 28 -29 28 -48 -32
c-217 -150 -511 -76 -626 158 -31 63 -33 73 -33 172 1 134 23 195 102 280 95
103 233 150 379 129 72 -10 154 -46 196 -86 l26 -25 34 32 33 32 -35 30 c-46
38 -142 83 -208 97 -68 14 -183 13 -249 -3z"/>
<path d="M4892 2713 c3 -330 5 -351 25 -402 32 -78 68 -125 126 -165 69 -46
142 -66 247 -66 150 0 250 44 323 142 67 91 70 112 75 496 l3 342 -45 0 -46 0
0 -287 c0 -378 -13 -455 -91 -532 -57 -58 -110 -76 -219 -75 -108 1 -147 14
-209 70 -22 19 -50 56 -63 82 -23 46 -23 53 -26 395 l-3 347 -50 0 -50 0 3
-347z"/>
<path d="M6010 2575 l0 -484 35 -7 c69 -13 65 -36 65 397 0 239 4 389 9 387 6
-1 143 -172 306 -378 163 -206 306 -383 317 -393 13 -11 33 -17 52 -15 l31 3
3 488 2 487 -50 0 -50 0 0 -397 -1 -398 -27 31 c-24 26 -355 442 -542 681 -63
80 -66 83 -107 83 l-43 0 0 -485z"/>
<path d="M7160 2570 l0 -490 23 0 c12 0 32 3 45 6 l22 6 0 484 0 484 -45 0
-45 0 0 -490z"/>
<path d="M7844 3003 c-21 -48 -240 -526 -380 -832 -19 -40 -31 -77 -28 -82 3
-5 24 -7 47 -6 l42 3 59 132 60 132 275 0 276 0 60 -131 60 -132 48 -4 c26 -2
47 1 47 6 0 6 -98 225 -219 488 l-218 478 -52 3 -52 3 -25 -58z m198 -310 c64
-142 114 -261 111 -265 -2 -5 -107 -8 -233 -8 -126 0 -231 3 -233 8 -6 9 223
522 233 522 3 0 59 -116 122 -257z"/>
<path d="M8560 2743 c0 -330 7 -399 46 -476 63 -123 184 -187 353 -187 191 0
310 73 374 231 20 51 22 72 25 402 l3 347 -44 0 -45 0 -4 -332 c-4 -320 -5
-335 -27 -391 -27 -68 -76 -121 -140 -151 -59 -27 -215 -28 -274 -2 -57 25
-112 80 -138 139 -24 51 -24 59 -27 395 l-3 342 -49 0 -50 0 0 -317z"/>
<path d="M9510 3020 l0 -40 170 0 170 0 2 -447 3 -448 45 0 45 0 3 448 2 447
175 0 175 0 0 40 0 40 -395 0 -395 0 0 -40z"/>
<path d="M11640 2570 l0 -490 45 0 45 0 0 396 c0 309 3 395 12 392 7 -3 142
-168 301 -369 356 -449 327 -417 369 -415 l33 2 3 487 2 487 -45 0 -45 0 0
-396 c0 -238 -4 -394 -9 -392 -5 2 -150 180 -321 396 l-311 392 -40 0 -39 0 0
-490z"/>
<path d="M13960 2575 c0 -267 3 -485 8 -486 4 -1 24 -3 45 -4 l37 -4 0 385 c0
279 3 385 11 382 6 -2 95 -147 198 -321 169 -289 188 -317 210 -315 21 3 52
49 200 304 97 165 184 312 193 325 16 23 17 4 17 -362 1 -429 -3 -406 67 -393
l34 6 0 484 0 484 -43 0 -42 0 -209 -360 c-115 -199 -213 -359 -217 -358 -5 2
-97 154 -204 338 -247 423 -218 380 -265 380 l-40 0 0 -485z"/>
<path d="M15375 2581 c-120 -264 -218 -483 -217 -488 1 -4 21 -8 44 -8 49 0
43 -7 123 168 l44 97 277 -2 277 -3 57 -130 57 -130 52 -1 c28 0 50 3 49 6 -2
4 -102 224 -223 489 l-220 481 -50 0 -51 0 -219 -479z m390 107 l113 -253
-230 -3 c-127 -1 -232 -1 -234 1 -2 2 38 98 90 213 51 115 103 231 115 258 11
27 24 46 27 43 3 -3 57 -120 119 -259z"/>
<path d="M16680 2569 l0 -490 253 4 c210 4 263 9 319 25 169 48 300 182 337
343 15 62 13 195 -3 254 -45 171 -179 298 -358 340 -46 11 -127 15 -305 15
l-243 0 0 -491z m565 381 c80 -31 137 -71 179 -126 142 -186 92 -478 -101
-591 -90 -53 -148 -63 -354 -63 l-189 0 0 406 0 406 203 -4 c182 -4 208 -7
262 -28z"/>
<path d="M17840 2570 l0 -490 343 2 342 3 3 43 3 42 -295 0 -296 0 0 185 0
185 255 0 255 0 0 40 0 40 -255 0 -255 0 0 180 0 180 285 0 285 0 0 40 0 40
-335 0 -335 0 0 -490z"/>
<path d="M18781 2576 c1 -388 4 -486 14 -490 7 -2 153 -5 324 -6 l311 -1 0 46
0 45 -275 0 -275 0 0 445 0 445 -50 0 -51 0 2 -484z"/>
<path d="M21252 3043 c-29 -55 -432 -945 -432 -954 0 -6 19 -9 47 -7 l46 3 60
133 60 132 276 0 276 0 49 -112 c69 -159 68 -158 121 -158 25 0 45 3 45 8 0 4
-50 117 -112 252 -62 135 -160 351 -219 480 l-108 235 -50 3 c-40 2 -52 -1
-59 -15z m179 -353 c64 -142 114 -262 111 -265 -9 -8 -460 -6 -466 3 -2 4 43
113 100 242 58 129 109 245 114 258 5 12 13 22 17 22 5 0 61 -117 124 -260z"/>
<path d="M21952 2713 c3 -331 4 -351 25 -402 46 -113 123 -184 232 -215 78
-23 213 -21 294 4 122 38 210 145 236 284 6 35 11 188 11 368 l0 308 -45 0
-45 0 0 -277 c-1 -388 -13 -461 -92 -543 -53 -54 -109 -74 -213 -74 -116 -1
-169 18 -228 84 -75 84 -80 108 -85 483 l-4 327 -45 0 -44 0 3 -347z"/>
<path d="M24135 2598 c-115 -254 -216 -474 -222 -490 l-12 -29 50 3 51 3 58
130 59 130 276 3 276 2 44 -97 c80 -176 73 -168 129 -171 43 -3 48 -1 42 15
-4 10 -104 231 -223 491 l-216 472 -51 0 -51 -1 -210 -461z m383 98 c61 -140
112 -259 112 -265 0 -8 -71 -11 -235 -11 -129 0 -235 4 -235 8 0 5 41 100 91
213 50 112 102 228 115 257 12 28 27 52 31 52 4 0 59 -114 121 -254z"/>
</g>
</svg>
